<?xml version="1.0" encoding="utf-8"?>
<!-- Generator: Adobe Illustrator 26.3.1, SVG Export Plug-In . SVG Version: 6.00 Build 0)  -->
<svg version="1.1" id="Capa_1" xmlns="http://www.w3.org/2000/svg" xmlns:xlink="http://www.w3.org/1999/xlink" x="0px" y="0px"
	 viewBox="0 0 300 300" style="enable-background:new 0 0 300 300;" xml:space="preserve">
<style type="text/css">
	.st0{fill:#FDFDFD;}
</style>
<g>
	<path d="M38.3,43.8c1.8-4.3,5-5.8,9.6-5.7c28.5,0.1,57.1,0.1,85.6,0.1c6.4,0,9.1,2.7,9.1,9.1c0,28.7,0,57.3,0,86
		c0,6.4-2.7,9.2-9.1,9.2c-28.5,0-57.1-0.1-85.6,0.1c-4.6,0-7.9-1.4-9.7-5.7C38.3,105.8,38.3,74.8,38.3,43.8z M90.3,127.6
		c11.7,0,23.4,0,35.2,0c1.8,0,2.4-0.3,2.4-2.3c-0.1-23.3-0.1-46.7,0-70c0-1.8-0.3-2.3-2.2-2.3C102.2,53,78.7,53,55.3,53
		c-1.6,0-2.2,0.3-2.2,2.1c0.1,23.5,0.1,47,0,70.5c0,1.8,0.6,2.1,2.2,2.1C67,127.6,78.6,127.6,90.3,127.6z"/>
	<path d="M163.2,261.6c-4.3-1.8-5.7-5.1-5.7-9.6c0.1-28.5,0.1-57,0.1-85.5c0-6.4,2.7-9.1,9.2-9.1c28.7,0,57.4,0,86.1,0
		c6.4,0,9.2,2.7,9.2,9.1c0,28.7,0,57.3,0,86c0,5.4-1.3,7.3-6.1,9.2C225,261.6,194.1,261.6,163.2,261.6z M172.5,209.5
		c0,11.8,0,23.6,0,35.3c0,1.2-0.1,2,1.6,2c23.8-0.1,47.6-0.1,71.4,0c1.4,0,1.7-0.5,1.6-1.7c0-23.7,0-47.4,0-71.1
		c0-1.5-0.5-1.8-1.8-1.8c-23.7,0-47.3,0-71,0c-1.6,0-1.9,0.5-1.9,2C172.5,185.9,172.5,197.7,172.5,209.5z"/>
	<path d="M38.3,163c1.8-4.3,5.1-5.7,9.7-5.7c28.5,0.1,57.1,0.1,85.6,0.1c6.4,0,9.2,2.7,9.2,9.1c0,28.6,0,57.3,0,85.9
		c0,5.4-1.3,7.3-6.1,9.2c-30.9,0-61.8,0-92.6,0c-2.7-1.1-4.6-3-5.7-5.7C38.3,225,38.3,194,38.3,163z M127.8,209.7
		c0-11.7,0-23.4,0-35.1c0-1.8-0.3-2.4-2.3-2.4c-23.4,0.1-46.7,0.1-70.1,0c-1.8,0-2.3,0.3-2.3,2.2c0.1,23.4,0.1,46.8,0,70.2
		c0,1.6,0.3,2.2,2.1,2.2c23.5-0.1,47-0.1,70.5,0c1.8,0,2.1-0.6,2.1-2.2C127.8,233,127.8,221.3,127.8,209.7z"/>
	<path class="st0" d="M38.3,256c1.1,2.7,3,4.6,5.7,5.7c-1.9,0-4.5,0.7-5.5-0.2C37.5,260.5,38.3,257.9,38.3,256z"/>
	<path d="M209.8,38.1c14.5,0,29,0,43.5,0c5.8,0,8.7,2.9,8.7,8.7c0,28.9,0,57.9,0,86.8c0,5.8-2.9,8.7-8.7,8.7c-29.1,0-58.1,0-87.2,0
		c-5.7,0-8.6-2.9-8.6-8.6c0-29,0-58,0-87.1c0-5.7,2.9-8.6,8.6-8.6C180.7,38.1,195.3,38.1,209.8,38.1z M209.8,53
		c-11.6,0-23.3,0-34.9,0c-1.8,0-2.4,0.3-2.4,2.3c0.1,23.3,0.1,46.7,0,70c0,1.8,0.4,2.3,2.2,2.3c23.4-0.1,46.9-0.1,70.3,0
		c1.7,0,2.2-0.3,2.2-2.1c-0.1-23.4-0.1-46.8,0-70.2c0-1.8-0.3-2.3-2.2-2.3C233.2,53.1,221.5,53,209.8,53z"/>
</g>
<g>
	<path d="M64,811c0.6-1.5,1.7-2,3.3-2c9.8,0,19.6,0,29.5,0c2.2,0,3.1,0.9,3.1,3.1c0,9.9,0,19.7,0,29.6c0,2.2-0.9,3.2-3.1,3.2
		c-9.8,0-19.6,0-29.5,0c-1.6,0-2.7-0.5-3.3-2C64,832.3,64,821.6,64,811z M81.9,839.8c4,0,8.1,0,12.1,0c0.6,0,0.8-0.1,0.8-0.8
		c0-8,0-16.1,0-24.1c0-0.6-0.1-0.8-0.8-0.8c-8.1,0-16.1,0-24.2,0c-0.6,0-0.8,0.1-0.8,0.7c0,8.1,0,16.2,0,24.2c0,0.6,0.2,0.7,0.8,0.7
		C73.9,839.8,77.9,839.8,81.9,839.8z"/>
	<path d="M107,885.9c-1.5-0.6-2-1.7-2-3.3c0-9.8,0-19.6,0-29.4c0-2.2,0.9-3.1,3.2-3.1c9.9,0,19.7,0,29.6,0c2.2,0,3.2,0.9,3.2,3.1
		c0,9.9,0,19.7,0,29.6c0,1.8-0.5,2.5-2.1,3.2C128.2,885.9,117.6,885.9,107,885.9z M110.1,868c0,4.1,0,8.1,0,12.2
		c0,0.4,0,0.7,0.6,0.7c8.2,0,16.4,0,24.6,0c0.5,0,0.6-0.2,0.6-0.6c0-8.2,0-16.3,0-24.5c0-0.5-0.2-0.6-0.6-0.6c-8.1,0-16.3,0-24.4,0
		c-0.5,0-0.7,0.2-0.6,0.7C110.2,859.9,110.1,863.9,110.1,868z"/>
	<path d="M64,852c0.6-1.5,1.7-2,3.3-2c9.8,0,19.6,0,29.4,0c2.2,0,3.2,0.9,3.2,3.1c0,9.9,0,19.7,0,29.6c0,1.8-0.5,2.5-2.1,3.2
		c-10.6,0-21.2,0-31.9,0c-0.9-0.4-1.6-1-2-2C64,873.3,64,862.6,64,852z M94.8,868c0-4,0-8.1,0-12.1c0-0.6-0.1-0.8-0.8-0.8
		c-8,0-16.1,0-24.1,0c-0.6,0-0.8,0.1-0.8,0.8c0,8.1,0,16.1,0,24.2c0,0.6,0.1,0.8,0.7,0.8c8.1,0,16.2,0,24.3,0c0.6,0,0.7-0.2,0.7-0.8
		C94.8,876,94.8,872,94.8,868z"/>
	<path class="st0" d="M64,884c0.4,0.9,1,1.6,2,2c-0.7,0-1.6,0.3-1.9-0.1C63.7,885.5,64,884.6,64,884z"/>
	<path d="M123,809c5,0,10,0,15,0c2,0,3,1,3,3c0,10,0,19.9,0,29.9c0,2-1,3-3,3c-10,0-20,0-30,0c-1.9,0-3-1-3-3c0-10,0-20,0-30
		c0-2,1-3,3-3C113,809,118,809,123,809z M123,814.1c-4,0-8,0-12,0c-0.6,0-0.8,0.1-0.8,0.8c0,8,0,16.1,0,24.1c0,0.6,0.1,0.8,0.8,0.8
		c8.1,0,16.1,0,24.2,0c0.6,0,0.8-0.1,0.7-0.7c0-8.1,0-16.1,0-24.2c0-0.6-0.1-0.8-0.8-0.8C131,814.2,127,814.1,123,814.1z"/>
</g>
</svg>
