<?xml version="1.0" standalone="no"?>
<!DOCTYPE svg PUBLIC "-//W3C//DTD SVG 20010904//EN"
 "http://www.w3.org/TR/2001/REC-SVG-20010904/DTD/svg10.dtd">
<svg version="1.0" xmlns="http://www.w3.org/2000/svg"
 width="512.000000pt" height="512.000000pt" viewBox="0 0 512.000000 512.000000"
 preserveAspectRatio="xMidYMid meet">

<g transform="translate(0.000000,512.000000) scale(0.100000,-0.100000)"
fill="#000000" stroke="none">
<path d="M1280 4485 c-690 -349 -1260 -642 -1267 -651 -10 -13 -13 -75 -13
-240 0 -122 3 -230 6 -239 13 -32 59 -45 168 -45 l104 0 4 -131 c3 -123 4
-132 27 -150 13 -10 34 -19 47 -19 l24 0 0 -180 c0 -139 3 -188 15 -209 24
-47 78 -56 113 -18 21 22 22 32 22 215 l0 192 230 0 230 0 0 -895 0 -895 -230
0 -230 0 0 559 0 560 -26 20 c-43 34 -86 26 -109 -20 -13 -24 -15 -114 -15
-574 l0 -545 -24 0 c-13 0 -34 -9 -47 -19 -23 -18 -24 -27 -27 -149 l-4 -130
-70 -4 c-106 -6 -108 -9 -108 -219 l0 -169 -28 0 c-17 0 -37 -10 -50 -23 -21
-22 -22 -31 -22 -241 l0 -217 25 -24 24 -25 2511 0 2511 0 24 25 c25 24 25 24
25 238 0 202 -1 216 -21 241 -14 17 -30 26 -50 26 l-29 0 0 169 c0 210 -2 213
-108 219 l-70 4 -4 130 c-3 122 -4 131 -27 149 -13 10 -34 19 -47 19 l-24 0 0
545 c0 460 -2 550 -15 574 -23 46 -66 54 -109 20 l-26 -20 0 -560 0 -559 -230
0 -230 0 0 895 0 895 230 0 230 0 0 -193 c0 -189 1 -194 23 -215 38 -36 88
-28 112 19 12 21 15 70 15 209 0 171 1 180 19 180 65 0 81 38 81 185 l0 115
105 0 c110 0 156 12 169 45 3 9 6 117 6 240 0 198 -2 225 -17 243 -24 27
-2517 1282 -2546 1281 -12 0 -587 -286 -1277 -634z m2486 -132 l1204 -607 0
-143 0 -143 -2410 0 -2410 0 0 143 0 142 1203 607 c661 334 1204 608 1206 608
2 0 545 -273 1207 -607z m-2676 -1118 l0 -75 -330 0 -330 0 0 75 0 75 330 0
330 0 0 -75z m990 -50 c0 -120 1 -127 25 -150 13 -14 36 -25 50 -25 l25 0 0
-895 0 -895 -25 0 c-14 0 -37 -11 -50 -25 -24 -23 -25 -30 -25 -150 l0 -125
-420 0 -420 0 0 125 c0 120 -1 127 -25 150 -13 14 -36 25 -50 25 l-25 0 0 895
0 895 25 0 c14 0 37 11 50 25 24 23 25 30 25 150 l0 125 420 0 420 0 0 -125z
m810 50 l0 -75 -330 0 -330 0 0 75 0 75 330 0 330 0 0 -75z m990 -50 c0 -120
1 -127 25 -150 13 -14 36 -25 50 -25 l25 0 0 -895 0 -895 -25 0 c-14 0 -37
-11 -50 -25 -24 -23 -25 -30 -25 -150 l0 -125 -420 0 -420 0 0 125 c0 120 -1
127 -25 150 -13 14 -36 25 -50 25 l-25 0 0 190 c0 189 0 191 -25 215 -30 31
-71 32 -102 3 -22 -21 -23 -26 -23 -215 l0 -193 -230 0 -230 0 0 895 0 895
230 0 230 0 0 -555 0 -556 26 -26 c20 -20 31 -24 57 -19 65 13 62 -19 65 596
l2 560 26 0 c14 0 36 11 49 25 24 23 25 30 25 150 l0 125 420 0 420 0 0 -125z
m810 50 l0 -75 -330 0 -330 0 0 75 0 75 330 0 330 0 0 -75z m-3600 -2240 l0
-75 -330 0 -330 0 0 75 0 75 330 0 330 0 0 -75z m1800 0 l0 -75 -330 0 -330 0
0 75 0 75 330 0 330 0 0 -75z m1800 0 l0 -75 -330 0 -330 0 0 75 0 75 330 0
330 0 0 -75z m180 -345 l0 -120 -2310 0 -2310 0 0 120 0 120 2310 0 2310 0 0
-120z m100 -385 l0 -115 -2410 0 -2410 0 0 115 0 115 2410 0 2410 0 0 -115z"/>
<path d="M1525 4269 c-588 -297 -1019 -520 -1032 -535 -28 -31 -29 -54 -2 -88
l20 -26 2049 0 2049 0 20 26 c27 34 26 57 -1 88 -28 32 -2037 1046 -2070 1045
-13 0 -477 -230 -1033 -510z m1876 -71 l839 -423 -840 -3 c-462 -1 -1218 -1
-1679 0 l-839 3 836 422 c461 233 839 423 841 423 2 0 381 -190 842 -422z"/>
</g>
</svg>
