<?xml version="1.0" encoding="utf-8"?>
<!-- Generator: Adobe Illustrator 26.3.1, SVG Export Plug-In . SVG Version: 6.00 Build 0)  -->
<svg version="1.1" id="Capa_1" xmlns="http://www.w3.org/2000/svg" xmlns:xlink="http://www.w3.org/1999/xlink" x="0px" y="0px"
	 viewBox="0 0 300 300" style="enable-background:new 0 0 300 300;" xml:space="preserve">
<style type="text/css">
	.st0{fill:#FDFDFD;}
	.st1{clip-path:url(#SVGID_00000006693032680358856060000010279203339806828730_);}
	.st2{fill-rule:evenodd;clip-rule:evenodd;fill:#B1B1B1;}
	.st3{fill-rule:evenodd;clip-rule:evenodd;fill:#7E7E7E;}
	.st4{fill-rule:evenodd;clip-rule:evenodd;fill:#383838;}
	.st5{fill-rule:evenodd;clip-rule:evenodd;fill:#8F8F8F;}
	.st6{fill-rule:evenodd;clip-rule:evenodd;fill:#5B5B5B;}
	.st7{fill-rule:evenodd;clip-rule:evenodd;fill:#B3B3B3;}
	.st8{fill-rule:evenodd;clip-rule:evenodd;fill:#BABABA;}
	.st9{fill-rule:evenodd;clip-rule:evenodd;fill:#4B4B4B;}
	.st10{fill-rule:evenodd;clip-rule:evenodd;fill:#7F7F7F;}
	.st11{fill-rule:evenodd;clip-rule:evenodd;fill:#818181;}
	.st12{fill-rule:evenodd;clip-rule:evenodd;fill:#626262;}
</style>
<g>
	<path d="M64,811c0.6-1.5,1.7-2,3.3-2c9.8,0,19.6,0,29.5,0c2.2,0,3.1,0.9,3.1,3.1c0,9.9,0,19.7,0,29.6c0,2.2-0.9,3.2-3.1,3.2
		c-9.8,0-19.6,0-29.5,0c-1.6,0-2.7-0.5-3.3-2C64,832.3,64,821.6,64,811z M81.9,839.8c4,0,8.1,0,12.1,0c0.6,0,0.8-0.1,0.8-0.8
		c0-8,0-16.1,0-24.1c0-0.6-0.1-0.8-0.8-0.8c-8.1,0-16.1,0-24.2,0c-0.6,0-0.8,0.1-0.8,0.7c0,8.1,0,16.2,0,24.2c0,0.6,0.2,0.7,0.8,0.7
		C73.9,839.8,77.9,839.8,81.9,839.8z"/>
	<path d="M107,885.9c-1.5-0.6-2-1.7-2-3.3c0-9.8,0-19.6,0-29.4c0-2.2,0.9-3.1,3.2-3.1c9.9,0,19.7,0,29.6,0c2.2,0,3.2,0.9,3.2,3.1
		c0,9.9,0,19.7,0,29.6c0,1.8-0.5,2.5-2.1,3.2C128.2,885.9,117.6,885.9,107,885.9z M110.1,868c0,4.1,0,8.1,0,12.2
		c0,0.4,0,0.7,0.6,0.7c8.2,0,16.4,0,24.6,0c0.5,0,0.6-0.2,0.6-0.6c0-8.2,0-16.3,0-24.5c0-0.5-0.2-0.6-0.6-0.6c-8.1,0-16.3,0-24.4,0
		c-0.5,0-0.7,0.2-0.6,0.7C110.2,859.9,110.1,863.9,110.1,868z"/>
	<path d="M64,852c0.6-1.5,1.7-2,3.3-2c9.8,0,19.6,0,29.4,0c2.2,0,3.2,0.9,3.2,3.1c0,9.9,0,19.7,0,29.6c0,1.8-0.5,2.5-2.1,3.2
		c-10.6,0-21.2,0-31.9,0c-0.9-0.4-1.6-1-2-2C64,873.3,64,862.6,64,852z M94.8,868c0-4,0-8.1,0-12.1c0-0.6-0.1-0.8-0.8-0.8
		c-8,0-16.1,0-24.1,0c-0.6,0-0.8,0.1-0.8,0.8c0,8.1,0,16.1,0,24.2c0,0.6,0.1,0.8,0.7,0.8c8.1,0,16.2,0,24.3,0c0.6,0,0.7-0.2,0.7-0.8
		C94.8,876,94.8,872,94.8,868z"/>
	<path class="st0" d="M64,884c0.4,0.9,1,1.6,2,2c-0.7,0-1.6,0.3-1.9-0.1C63.7,885.5,64,884.6,64,884z"/>
	<path d="M123,809c5,0,10,0,15,0c2,0,3,1,3,3c0,10,0,19.9,0,29.9c0,2-1,3-3,3c-10,0-20,0-30,0c-1.9,0-3-1-3-3c0-10,0-20,0-30
		c0-2,1-3,3-3C113,809,118,809,123,809z M123,814.1c-4,0-8,0-12,0c-0.6,0-0.8,0.1-0.8,0.8c0,8,0,16.1,0,24.1c0,0.6,0.1,0.8,0.8,0.8
		c8.1,0,16.1,0,24.2,0c0.6,0,0.8-0.1,0.7-0.7c0-8.1,0-16.1,0-24.2c0-0.6-0.1-0.8-0.8-0.8C131,814.2,127,814.1,123,814.1z"/>
</g>
<g>
	<defs>
		<rect id="SVGID_1_" x="37.3" y="38" width="225.4" height="224"/>
	</defs>
	<clipPath id="SVGID_00000139994458215788831740000017068872473434092681_">
		<use xlink:href="#SVGID_1_"  style="overflow:visible;"/>
	</clipPath>
	
		<g id="Grupo_40009_00000170985610581302420140000014386493460332001955_" style="clip-path:url(#SVGID_00000139994458215788831740000017068872473434092681_);">
		<path id="Trazado_80249_00000154390531480134646800000016972718885958710205_" class="st2" d="M149.1,144.6
			c-11-9.3-24.9-14.3-39.2-14.2c-33.6-0.2-61,26.9-61.1,60.5c-0.1,24.1,14.1,46.1,36.1,55.9c-5.9-9.8-9.1-21-9.3-32.4
			c-3.5-7-5.3-14.7-5.3-22.5c-0.1-29.4,23.7-53.3,53.1-53.4c8.5,0,16.9,2,24.5,5.9c-0.6,0-0.9,0.3-1.5,0.3
			C147.2,144.7,148.2,144.7,149.1,144.6"/>
		<path id="Trazado_80250_00000065791128476635159380000016502636689620375221_" class="st3" d="M148.2,144.2
			c-0.6,0-0.9,0.3-1.6,0.3c-39.5,3.4-70.4,32.7-71,68.5v1.2c6.2,13.4,17.8,23.6,31.8,28.1c-18.1-33.1-5.9-74.6,27.2-92.6
			C138.9,147.5,143.5,145.6,148.2,144.2"/>
		<path id="Trazado_80251_00000131344926776495634150000005343480734311496074_" class="st4" d="M148.2,144.2
			c-7.4-3.9-15.7-5.9-24.1-5.9c-29.4-0.1-53.3,23.7-53.4,53.1c0,0,0,0,0,0v0.4c0,7.8,1.8,15.5,5.3,22.5v-0.6
			c0-36.1,31.2-66.1,71-69.5C147.2,144.6,147.5,144.6,148.2,144.2"/>
		<path id="Trazado_80252_00000031893092747954773810000001947213221962687403_" class="st5" d="M140.8,149.8
			c-28.1,18.8-35.7,56.9-16.9,85c7.9,11.8,19.6,20.5,33.2,24.6c23.1,7,48.1-0.4,63.6-18.8c-11.1,2.8-22.7,2.7-33.7-0.3
			c-29,4.5-56.2-15.4-60.7-44.4c-1.2-7.9-0.7-16,1.7-23.6c2.4-8,6.7-15.4,12.4-21.6v1.5C140.4,151.4,140.5,150.6,140.8,149.8"/>
		<path id="Trazado_80253_00000124144847609830514630000009959462521833140868_" class="st6" d="M140.1,150.7v1.6
			c-0.9,5-1.5,10.1-1.8,15.1v5.3c-0.3,30.6,19.2,57.9,48.2,67.6h0.6c14.6-2.1,27.6-10.3,35.8-22.5c-11.1,2.5-22.7,2.1-33.7-1.2
			C160.1,207.8,140.2,181.1,140.1,150.7 M187.1,240.3c-0.9,0-1.8,0.3-2.5,0.3C185.4,240.3,186.2,240.2,187.1,240.3"/>
		<path id="Trazado_80254_00000141457886050601242390000015261045295041288105_" class="st4" d="M140.1,150.7
			c-20.3,21.6-19.2,55.6,2.4,75.8c6,5.6,13.2,9.8,21,12.2c7.5,2.3,15.4,2.9,23.2,1.5h-0.6c-34.9-10.5-54.3-48.8-46.3-87.7
			C140,152,140.1,151.3,140.1,150.7"/>
		<path id="Trazado_80255_00000095302210745446972520000003936607528335368355_" class="st7" d="M142.9,159.7
			c8.9,32.5,42.4,51.6,74.9,42.7c32.5-8.9,51.6-42.4,42.7-74.9c-1.5-5.5-3.8-10.8-6.8-15.6c-0.5,11.4-4.3,22.4-10.8,31.8
			c-1.3,7.7-4.2,15.1-8.6,21.6c-16.6,24.3-49.7,30.5-74,14c0,0,0,0,0,0l-0.1-0.1c-6.9-4.8-12.6-11.2-16.7-18.5
			c0.5,0.3,1,0.4,1.6,0.3C144.3,160.7,143.6,160.2,142.9,159.7"/>
		<path id="Trazado_80256_00000181793601980939626910000001598624626633023386_" class="st4" d="M143.5,160.6
			c14,25.8,46.3,35.4,72.2,21.4c7.5-4,13.8-9.8,18.6-16.8c4.4-6.5,7.3-13.9,8.6-21.6l-0.3,0.3c-20.4,30-63,36.8-97.5,17
			C144.5,160.9,144,160.8,143.5,160.6"/>
		<path id="Trazado_80257_00000005260992628420401410000009750061347349093782_" class="st8" d="M152.8,160
			c33.7,1.6,62.3-24.3,63.9-58c1.6-33.7-24.3-62.3-58-63.9c-5.6-0.3-11.3,0.2-16.7,1.5c10.6,4.1,20,11,26.9,20.1
			c6.9,3.7,12.9,8.9,17.6,15.1c17.8,23.4,13.3,56.8-10,74.6c0,0,0,0,0,0l-0.1,0.1c-6.6,5.2-14.3,8.6-22.5,9.9
			c0.3-0.3,0.6-0.9,0.9-1.2L152.8,160z"/>
		<path id="Trazado_80258_00000047033915697116208620000017952433655545233086_" class="st4" d="M153.7,159.4
			c8.2-1.5,15.9-4.9,22.5-9.9c23.4-17.8,28-51.1,10.3-74.6c0,0,0,0,0,0l-0.1-0.1c-4.8-6.2-10.8-11.3-17.6-15.1
			c0,0.3,0.3,0.3,0.3,0.6c21.9,28.7,15.1,71.3-14.8,98.2C154.3,158.8,154,159.1,153.7,159.4"/>
		<path id="Trazado_80259_00000013154444631438071300000012258371286317557130_" class="st8" d="M155.6,149.5
			c11.4-31.7-5-66.7-36.7-78.1s-66.7,5-78.1,36.7c-1.9,5.2-3,10.6-3.5,16.1c7.2-8.8,16.6-15.6,27.2-19.8c20.6-21,54.3-21.3,75.3-0.8
			c11.9,11.6,17.6,28.2,15.6,44.7c-0.3-0.3-0.6-0.9-0.9-1.2C154.8,147.8,155.3,148.6,155.6,149.5"/>
		<path id="Trazado_80260_00000083065116348223488890000002461158015020901772_" class="st9" d="M155.6,148.6
			c0.9-8.3,0-16.8-2.8-24.7C142.7,96.2,112.1,82,84.4,92.1c-7.4,2.7-14.1,7-19.6,12.6c0.3,0,0.3,0,0.6-0.3
			c34-12.4,72.6,6.8,89.2,42.9C155,147.7,155.3,148.1,155.6,148.6"/>
		<path id="Trazado_80261_00000161625094017344589810000013519880825501970849_" class="st10" d="M154,146.1
			c0.6,0.6,0.9,1.2,1.6,1.8c-0.4-0.4-0.7-0.8-0.9-1.2c-16.4-36.1-54.6-55.3-88.6-43.6h-1l-0.3,0.3C54.4,114,48.7,128.2,49,143v0.6
			c4.7-5.3,10.3-9.9,16.4-13.6c3.6-2.2,7.4-4.1,11.4-5.5c28.5-10.2,60.2-0.7,78.4,23.5c-0.3-0.3-0.6-0.9-0.9-1.2
			C154.3,147,154.3,146.4,154,146.1"/>
		<path id="Trazado_80262_00000008144925137380305760000009724199080613451964_" class="st11" d="M154.3,158.8
			c0-0.3,0.3-0.3,0.3-0.6C154.6,158.5,154.6,158.5,154.3,158.8 M173.8,66.7c-0.3-0.3-0.3-0.9-0.6-1.2c0-0.3-0.3-0.3-0.3-0.6
			c-0.9-1.5-1.8-3.1-2.8-4.3c0-0.3-0.3-0.3-0.3-0.6v-0.3c0.3,0.3,0.6,0.3,0.9,0.6c0.3,0.3,0.6,0.3,1.2,0.6c-0.3-0.3-0.8-0.5-1.2-0.6
			c-0.3-0.3-0.9-0.3-1.2-0.6c-13.1-6.8-28.3-8-42.3-3.4c9.6,4.4,18,11,24.7,19.1c0.3,0.6,0.9,1.2,1.2,1.8
			c18.1,24.2,18.3,57.4,0.6,81.8c0.3-0.3,0.6-0.9,0.9-1.2l0.6-0.6c0,0.3-0.3,0.3-0.3,0.6c5.9-5.4,11.1-11.5,15.4-18.2
			c7.4-11.8,11.6-25.3,12-39.2V97C182.1,86.3,179.1,75.9,173.8,66.7"/>
		<path id="Trazado_80263_00000158729061325942804870000011456007339925346994_" class="st12" d="M144.7,160.9
			c-0.3,0-0.9-0.3-1.2-0.3C143.8,160.6,144.4,160.9,144.7,160.9 M233.1,102.3v0.3C232.7,102.6,232.7,102.6,233.1,102.3
			c-1.3,11.4-5.4,22.3-11.7,31.8c-6.1,9.1-14.4,16.5-24.1,21.6c-0.2,0-0.3,0.1-0.3,0.3l0,0c-0.3,0.3-0.9,0.3-1.2,0.6
			c-0.3,0.3-0.9,0.3-1.2,0.6c-0.3,0-0.3,0.3-0.6,0.3c-15.6,7.2-33.3,8.3-49.7,3.1c0.4,0.2,0.8,0.4,1.2,0.3h0.3
			c25.9,15.9,58.7,14.9,83.7-2.5c0.3-0.3,0.9-0.6,1.2-0.9c4.8-3.8,9.1-8.3,12.7-13.3c0-0.3,0.3-0.3,0.3-0.6c0,0.3-0.1,0.7-0.3,0.9
			c0,0.6-0.3,0.9-0.3,1.2c0-0.4,0.1-0.9,0.3-1.2c0-0.3,0.3-0.6,0.3-1.2v-0.6C245.5,128.4,241.7,113.8,233.1,102.3"/>
	</g>
</g>
</svg>
